<svg width="30" height="30" viewBox="0 0 30 30" fill="none" xmlns="http://www.w3.org/2000/svg">
<path fill-rule="evenodd" clip-rule="evenodd" d="M5 10C4.30964 10 3.75 10.5596 3.75 11.25V23.75C3.75 24.4404 4.30964 25 5 25H25C25.6904 25 26.25 24.4404 26.25 23.75V11.25C26.25 10.5596 25.6904 10 25 10H5ZM1.25 11.25C1.25 9.17893 2.92893 7.5 5 7.5H25C27.0711 7.5 28.75 9.17893 28.75 11.25V23.75C28.75 25.8211 27.0711 27.5 25 27.5H5C2.92893 27.5 1.25 25.8211 1.25 23.75V11.25Z" fill="#0074D9"/>
<path fill-rule="evenodd" clip-rule="evenodd" d="M9.84835 3.59835C10.5516 2.89509 11.5054 2.5 12.5 2.5H17.5C18.4946 2.5 19.4484 2.89509 20.1516 3.59835C20.8549 4.30161 21.25 5.25544 21.25 6.25V26.25C21.25 26.9404 20.6904 27.5 20 27.5C19.3096 27.5 18.75 26.9404 18.75 26.25V6.25C18.75 5.91848 18.6183 5.60054 18.3839 5.36612C18.1495 5.1317 17.8315 5 17.5 5H12.5C12.1685 5 11.8505 5.1317 11.6161 5.36612C11.3817 5.60054 11.25 5.91848 11.25 6.25V26.25C11.25 26.9404 10.6904 27.5 10 27.5C9.30964 27.5 8.75 26.9404 8.75 26.25V6.25C8.75 5.25544 9.14509 4.30161 9.84835 3.59835Z" fill="#0074D9"/>
</svg>
