<svg width="26" height="26" viewBox="0 0 26 26" fill="none" xmlns="http://www.w3.org/2000/svg">
<g clip-path="url(#clip0)">
<path fill-rule="evenodd" clip-rule="evenodd" d="M4.20033 4.4586C6.59271 2.28371 9.70983 1.07861 12.943 1.07861C16.1762 1.07861 19.2934 2.28371 21.6857 4.4586C24.0781 6.63349 25.5739 9.62199 25.8812 12.8406C25.9101 13.1431 25.81 13.4437 25.6056 13.6686C25.4011 13.8934 25.1114 14.0216 24.8075 14.0216H14.0216V20.4932C14.0216 21.0653 14.2489 21.614 14.6534 22.0185C15.058 22.423 15.6067 22.6503 16.1788 22.6503C16.7509 22.6503 17.2996 22.423 17.7041 22.0185C18.1087 21.614 18.336 21.0653 18.336 20.4932C18.336 19.8975 18.8189 19.4146 19.4145 19.4146C20.0102 19.4146 20.4931 19.8975 20.4931 20.4932C20.4931 21.6374 20.0386 22.7348 19.2295 23.5439C18.4204 24.3529 17.323 24.8075 16.1788 24.8075C15.0346 24.8075 13.9372 24.3529 13.1281 23.5439C12.319 22.7348 11.8644 21.6374 11.8644 20.4932V14.0216H1.07859C0.774704 14.0216 0.484917 13.8934 0.280501 13.6686C0.0760853 13.4437 -0.0239914 13.1431 0.00488474 12.8406C0.312112 9.62199 1.80796 6.63349 4.20033 4.4586ZM23.5549 11.8645C23.0907 9.63619 21.9338 7.59944 20.2347 6.05478C18.2394 4.24087 15.6396 3.23578 12.943 3.23578C10.2465 3.23578 7.6467 4.24087 5.6514 6.05478C3.95227 7.59944 2.79537 9.63619 2.33112 11.8645H23.5549Z" fill="#0074D9"/>
</g>
<defs>
<clipPath id="clip0">
<rect width="25.8861" height="25.8861" fill="white"/>
</clipPath>
</defs>
</svg>
